<?xml version="1.0" encoding="UTF-8"?><!DOCTYPE svg PUBLIC "-//W3C//DTD SVG 1.1//EN" "http://www.w3.org/Graphics/SVG/1.1/DTD/svg11.dtd"><svg xmlns="http://www.w3.org/2000/svg" xmlns:xlink="http://www.w3.org/1999/xlink"><defs>
        <polygon id="path-1" points="0 0.665916667 203.489495 0.665916667 203.489495 13.1 0 13.1"/>
        <polygon id="path-3" points="0.538104991 0.382083333 54.5098677 0.382083333 54.5098677 19.958505 0.538104991 19.958505"/>
        <polygon id="path-5" points="1.53622154 2.00342667 44.1532615 2.00342667 44.1532615 49.3184433 1.53622154 49.3184433"/>
    </defs><symbol id="android" viewBox="0 0 311.1 172.5">
<g>
    <g>
        <path d="M231.2,50.4l23.6-43.5c1.5-2.9,1-5.1-1.7-6.6c-2.9-1.3-5.1-0.7-6.6,2l-23.9,43.9c-21.1-9.3-43.3-14-66.8-14
            c-23.5,0-45.8,4.7-66.8,14L65,2.2c-1.6-2.7-3.8-3.3-6.6-2c-2.7,1.6-3.2,3.8-1.7,6.6l23.6,43.5c-23.9,12.2-43,29.2-57.2,51
            C8.9,123.2,1.8,147.1,1.8,173h307.4c0-25.9-7.1-49.8-21.3-71.6C273.8,79.6,254.9,62.6,231.2,50.4z M94.7,113.7
            c-2.6,2.6-5.6,3.8-9.1,3.8c-3.6,0-6.5-1.3-9-3.8c-2.4-2.5-3.7-5.6-3.7-9.1c0-3.5,1.2-6.6,3.7-9.1c2.4-2.5,5.4-3.8,9-3.8
            s6.6,1.3,9.1,3.8c2.5,2.6,3.8,5.6,3.8,9.1C98.6,108.1,97.3,111.1,94.7,113.7z M234.8,113.7c-2.4,2.6-5.4,3.8-9,3.8
            c-3.6,0-6.6-1.3-9.1-3.8c-2.6-2.5-3.8-5.6-3.8-9.1c0-3.5,1.3-6.6,3.8-9.1c2.5-2.5,5.6-3.8,9.1-3.8c3.5,0,6.5,1.3,9,3.8
            c2.4,2.6,3.7,5.6,3.7,9.1C238.5,108.1,237.3,111.1,234.8,113.7z"/>
    </g>
</g>
</symbol><symbol id="apple" viewBox="0 0 432 512">
<g>
    <path d="M145.3,512C69.1,511.6,6,356,6,276.8c0-129.4,97.1-157.7,134.5-157.7c16.9,0,34.9,6.6,50.7,12.5c11.1,4.1,22.6,8.3,29,8.3
        c3.8,0,12.8-3.6,20.8-6.7c17-6.8,38.1-15.1,62.7-15.1c0,0,0.1,0,0.1,0c18.4,0,74,4,107.5,54.3l7.8,11.8l-11.3,8.5
        c-16.1,12.2-45.5,34.3-45.5,78.3c0,52,33.3,72,49.3,81.7c7.1,4.2,14.4,8.6,14.4,18.2c0,6.3-49.9,140.6-122.4,140.6
        c-17.7,0-30.3-5.3-41.3-10c-11.2-4.8-20.8-8.9-36.8-8.9c-8.1,0-18.3,3.8-29.1,7.9c-14.8,5.5-31.5,11.8-50.5,11.8H145.3z"/>
    <path d="M311.3,0c1.9,68.1-46.8,115.3-95.4,112.3C207.9,58,264.5,0,311.3,0z"/>
</g>
</symbol><symbol id="arrow-right" viewBox="0 0 18 10">
    <g id="Symbols" stroke="none" stroke-width="2" fill="none" fill-rule="evenodd" stroke-linecap="square">
        <g id="Icon/UI/Arrow-Copy" transform="translate(-21.000000, -13.000000)" stroke="#fff">
            <g id="arrow-right" transform="translate(21.000000, 13.000000)">
                <path d="M0.278688525,4.85714286 L16.3032787,5 M12.1229508,0 L17,5 L12.1229508,10" id="Shape"/>
            </g>
        </g>
    </g>
</symbol><symbol id="arrow" viewBox="0 0 11 18">
    <g stroke="none" stroke-width="1" fill="none" fill-rule="evenodd" stroke-linecap="square">
        <g transform="translate(-8.000000, -5.000000)" stroke="#FFFFFF" stroke-width="2">
            <g transform="translate(10.000000, 7.000000)">
                <polyline points="0 14 7.5 7 0 0"/>
            </g>
        </g>
    </g>
</symbol><symbol id="bigLogo" viewBox="0 0 283 127">
    <!-- Generator: Sketch 64 (93537) - https://sketch.com -->
    <title>bigLogo</title>
    <desc>Created with Sketch.</desc>
    
    <g id="0_Intro*" stroke="none" stroke-width="1" fill="none" fill-rule="evenodd">
        <g id="Intro" transform="translate(-141.000000, -352.000000)">
            <g id="bigLogo" transform="translate(141.000000, 350.000000)">
                <g id="Group-14">
                    <g id="Group-3" transform="translate(0.000000, 115.334583)">
                        <mask id="mask-2" fill="white">
                            <use xlink:href="#path-1"/>
                        </mask>
                        <g id="Clip-2"/>
                        <path d="M5.01718769,13.0825333 C8.09968,13.0825333 10.0854954,11.2812833 10.0854954,7.69406667 L10.0854954,0.873333333 L8.01666462,0.873333333 L8.01666462,7.79668333 C8.01666462,10.0105833 6.88721846,11.1262667 5.04995692,11.1262667 C3.19740308,11.1262667 2.06795692,9.94071667 2.06795692,7.70935 L2.06795692,0.873333333 L-0.000873846154,0.873333333 L-0.000873846154,7.79668333 C-0.000873846154,11.2812833 1.94998769,13.0825333 5.01718769,13.0825333 L5.01718769,13.0825333 Z M15.4618338,12.8925833 L17.5306646,12.8925833 L17.5306646,8.70495 L20.1281723,8.70495 L23.0249723,12.8925833 L25.4826646,12.8925833 L22.29968,8.34251667 C23.9337723,7.86218333 25.0938031,6.67881667 25.0938031,4.7029 L25.0938031,4.66796667 C25.0938031,3.62215 24.74208,2.72698333 24.1194646,2.07416667 C23.3614031,1.31873333 22.1991877,0.873333333 20.7158338,0.873333333 L15.4618338,0.873333333 L15.4618338,12.8925833 Z M17.5306646,6.83383333 L17.5306646,2.79466667 L20.5476185,2.79466667 C22.0812185,2.79466667 22.9900185,3.50206667 22.9900185,4.78805 L22.9900185,4.82298333 C22.9900185,6.04346667 22.0462646,6.83383333 20.5650954,6.83383333 L17.5306646,6.83383333 Z M30.1686646,12.8925833 L35.6236492,12.8925833 C38.2517415,12.8925833 39.9841415,11.74415 39.9841415,9.59793333 L39.9841415,9.563 C39.9841415,7.92986667 39.0250954,7.12421667 37.6444185,6.64388333 C38.5204492,6.18101667 39.3287569,5.4103 39.3287569,3.96493333 L39.3287569,3.93 C39.3287569,3.12216667 39.0578646,2.46935 38.5379262,1.93661667 C37.86288,1.25105 36.8033415,0.873333333 35.4576185,0.873333333 L30.1686646,0.873333333 L30.1686646,12.8925833 Z M37.2577415,4.30553333 C37.2577415,5.4103 36.3642338,5.94085 35.0338031,5.94085 L32.2025415,5.94085 L32.2025415,2.74226667 L35.1845415,2.74226667 C36.5171569,2.74226667 37.2577415,3.32958333 37.2577415,4.27278333 L37.2577415,4.30553333 Z M37.9153108,9.34248333 L37.9153108,9.37305 C37.9153108,10.4559833 37.0545723,11.02365 35.6411262,11.02365 L32.2025415,11.02365 L32.2025415,7.72463333 L35.4882031,7.72463333 C37.1222954,7.72463333 37.9153108,8.32505 37.9153108,9.34248333 L37.9153108,9.34248333 Z M43.8443569,12.8925833 L45.9656185,12.8925833 L47.17808,9.99093333 L52.7532185,9.99093333 L53.9482031,12.8925833 L56.1371877,12.8925833 L50.9509108,0.790366667 L49.0306338,0.790366667 L43.8443569,12.8925833 Z M47.9361415,8.122 L49.9569108,3.31211667 L51.9951569,8.122 L47.9361415,8.122 Z M60.6877415,12.8925833 L62.7238031,12.8925833 L62.7238031,4.34265 L69.2274031,12.8925833 L70.9619877,12.8925833 L70.9619877,0.873333333 L68.9259262,0.873333333 L68.9259262,9.18528333 L62.6058338,0.873333333 L60.6877415,0.873333333 L60.6877415,12.8925833 Z M88.2270031,13.0650667 C90.7043569,13.0650667 92.4389415,11.7266833 92.4389415,9.47785 L92.4389415,9.44291667 C92.4389415,7.44953333 91.1587569,6.53908333 88.6661108,5.9212 C86.3897415,5.371 85.8501415,4.96053333 85.8501415,4.03043333 L85.8501415,3.99768333 C85.8501415,3.20731667 86.5579569,2.57196667 87.7726031,2.57196667 C88.8518031,2.57196667 89.9135262,3.00208333 90.9730646,3.80773333 L92.0850338,2.21171667 C90.8922338,1.23576667 89.5268492,0.70085 87.8053723,0.70085 C85.4656492,0.70085 83.7813108,2.12656667 83.7813108,4.18545 L83.7813108,4.22038333 C83.7813108,6.43646667 85.1947569,7.1919 87.70488,7.81196667 C89.8960492,8.32723333 90.3679262,8.7901 90.3679262,9.65033333 L90.3679262,9.68308333 C90.3679262,10.5760667 89.5618031,11.1961333 88.2772492,11.1961333 C86.8310338,11.1961333 85.6819262,10.6284667 84.5546646,9.63286667 L83.3094338,11.1437333 C84.72288,12.4297167 86.4246954,13.0650667 88.2270031,13.0650667 L88.2270031,13.0650667 Z M103.034326,13.1 C106.656418,13.1 109.214603,10.2682167 109.214603,6.88623333 L109.214603,6.84911667 C109.214603,3.46495 106.689188,0.665916667 103.067095,0.665916667 C99.4450031,0.665916667 96.8868185,3.50206667 96.8868185,6.88623333 L96.8868185,6.9168 C96.8868185,10.30315 99.4100492,13.1 103.034326,13.1 L103.034326,13.1 Z M103.067095,11.1437333 C100.725188,11.1437333 99.0561415,9.21803333 99.0561415,6.88623333 L99.0561415,6.84911667 C99.0561415,4.51295 100.692418,2.60908333 103.034326,2.60908333 C105.376234,2.60908333 107.043095,4.54788333 107.043095,6.88623333 L107.043095,6.9168 C107.043095,9.25515 105.409003,11.1437333 103.067095,11.1437333 L103.067095,11.1437333 Z M114.252326,12.8925833 L122.52328,12.8925833 L122.52328,10.97125 L116.323342,10.97125 L116.323342,0.873333333 L114.252326,0.873333333 L114.252326,12.8925833 Z M131.703034,13.0825333 C134.785526,13.0825333 136.771342,11.2812833 136.771342,7.69406667 L136.771342,0.873333333 L134.702511,0.873333333 L134.702511,7.79668333 C134.702511,10.0105833 133.573065,11.1262667 131.733618,11.1262667 C129.883249,11.1262667 128.753803,9.94071667 128.753803,7.70935 L128.753803,0.873333333 L126.684972,0.873333333 L126.684972,7.79668333 C126.684972,11.2812833 128.635834,13.0825333 131.703034,13.0825333 L131.703034,13.0825333 Z M145.04448,12.8925833 L147.128603,12.8925833 L147.128603,2.8296 L150.870849,2.8296 L150.870849,0.873333333 L141.304418,0.873333333 L141.304418,2.8296 L145.04448,2.8296 L145.04448,12.8925833 Z M155.705403,12.8925833 L157.776418,12.8925833 L157.776418,0.873333333 L155.705403,0.873333333 L155.705403,12.8925833 Z M169.079618,13.1 C172.699526,13.1 175.259895,10.2682167 175.259895,6.88623333 L175.259895,6.84911667 C175.259895,3.46495 172.736665,0.665916667 169.112388,0.665916667 C165.490295,0.665916667 162.934295,3.50206667 162.934295,6.88623333 L162.934295,6.9168 C162.934295,10.30315 165.457526,13.1 169.079618,13.1 L169.079618,13.1 Z M169.112388,11.1437333 C166.77048,11.1437333 165.103618,9.21803333 165.103618,6.88623333 L165.103618,6.84911667 C165.103618,4.51295 166.737711,2.60908333 169.079618,2.60908333 C171.421526,2.60908333 173.090572,4.54788333 173.090572,6.88623333 L173.090572,6.9168 C173.090572,9.25515 171.454295,11.1437333 169.112388,11.1437333 L169.112388,11.1437333 Z M180.299803,12.8925833 L182.335865,12.8925833 L182.335865,4.34265 L188.839465,12.8925833 L190.574049,12.8925833 L190.574049,0.873333333 L188.533618,0.873333333 L188.533618,9.18528333 L182.217895,0.873333333 L180.299803,0.873333333 L180.299803,12.8925833 Z M200.260634,13.0650667 C202.733618,13.0650667 203.489495,11.7266833 203.489495,9.47785 L203.489495,9.44291667 C203.489495,7.44953333 203.190203,6.53908333 200.697557,5.9212 C198.421188,5.371 197.883772,4.96053333 197.883772,4.03043333 L197.883772,3.99768333 C197.883772,3.20731667 198.589403,2.57196667 199.804049,2.57196667 C200.881065,2.57196667 200.966265,3.00208333 202.025803,3.80773333 L203.137772,2.21171667 C201.940603,1.23576667 201.556111,0.70085 199.836818,0.70085 C197.494911,0.70085 195.812757,2.12656667 195.812757,4.18545 L195.812757,4.22038333 C195.812757,6.43646667 197.226203,7.1919 199.734142,7.81196667 C201.927495,8.32723333 201.422849,8.7901 201.422849,9.65033333 L201.422849,9.68308333 C201.422849,10.5760667 201.58888,11.1961333 200.308695,11.1961333 C198.860295,11.1961333 197.713372,10.6284667 196.586111,9.63286667 L195.34088,11.1437333 C196.754326,12.4297167 198.456142,13.0650667 200.260634,13.0650667 L200.260634,13.0650667 Z" id="Fill-1" fill="#FEFEFE" mask="url(#mask-2)"/>
                    </g>
                    <path d="M0.555329231,98.3984667 L11.2774215,98.3984667 L11.2774215,78.4013167 L23.3932985,78.4013167 C36.8155754,78.4013167 47.7998215,71.11335 47.7998215,57.1574833 L47.7998215,56.9828167 C47.7998215,44.4504833 38.9084369,36.1843833 24.6123138,36.1843833 L0.555329231,36.1843833 L0.555329231,98.3984667 Z M11.2774215,68.5370167 L11.2774215,46.1403833 L23.7406523,46.1403833 C31.7603754,46.1403833 36.90296,49.9612167 36.90296,57.2491833 L36.90296,57.42385 C36.90296,63.9127167 31.84776,68.5370167 23.7406523,68.5370167 L11.2774215,68.5370167 Z M60.1428985,98.3984667 L88.3834215,98.3984667 C101.982652,98.3984667 110.959237,92.4445167 110.959237,81.3335333 L110.959237,81.1566833 C110.959237,72.7137333 105.991422,68.5370167 98.84336,66.0480167 C103.376437,63.6485333 107.559975,59.6486667 107.559975,52.18385 L107.559975,52.0048167 C107.559975,47.8281 106.166191,44.4504833 103.463822,41.6929333 C99.9771754,38.1384667 94.4850523,36.1843833 87.51176,36.1843833 L60.1428985,36.1843833 L60.1428985,98.3984667 Z M96.8400677,53.9589 C96.8400677,59.6486667 92.2196062,62.4040333 85.3336985,62.4040333 L70.6902215,62.4040333 L70.6902215,45.86965 L86.1179754,45.86965 C93.0038831,45.86965 96.8400677,48.89575 96.8400677,53.78205 L96.8400677,53.9589 Z M100.239329,80.0017 L100.239329,80.1763667 C100.239329,85.7788 95.7936369,88.7110167 88.4708062,88.7110167 L70.6902215,88.7110167 L70.6902215,71.6439 L87.6865292,71.6439 C96.1409908,71.6439 100.239329,74.7573333 100.239329,80.0017 L100.239329,80.0017 Z M149.242437,99.2870833 C162.057391,99.2870833 171.033975,92.355 171.033975,80.7112833 L171.033975,80.53225 C171.033975,70.2247333 164.410222,65.5131 151.512252,62.3145167 C139.741545,59.4718167 136.953975,57.3387 136.953975,52.53755 L136.953975,52.3585167 C136.953975,48.2735 140.613206,44.9810333 146.889606,44.9810333 C152.469114,44.9810333 157.959052,47.20585 163.448991,51.3825667 L169.203268,43.11865 C163.016437,38.0511333 155.95576,35.2957667 147.064375,35.2957667 C134.948498,35.2957667 126.231883,42.67325 126.231883,53.33665 L126.231883,53.5135 C126.231883,64.9803667 133.554714,68.8907167 146.542252,72.0893 C157.873852,74.7573333 160.314068,77.1568167 160.314068,81.5999 L160.314068,81.7789333 C160.314068,86.40105 156.130529,89.5996333 149.506775,89.5996333 C142.009175,89.5996333 136.082314,86.6674167 130.240652,81.5125667 L123.791668,89.3332667 C131.112314,95.9968 139.916314,99.2870833 149.242437,99.2870833 L149.242437,99.2870833 Z M212.154991,99.46175 C223.57616,99.46175 230.549452,95.1977 236.911052,88.4424667 L230.025145,81.3335333 C224.795175,86.3115333 220.002129,89.3332667 212.506714,89.3332667 C200.825575,89.3332667 192.368929,79.4667833 192.368929,67.2925167 L192.368929,67.1134833 C192.368929,54.9392167 200.91296,45.1600667 212.506714,45.1600667 C219.477822,45.1600667 224.707791,48.2735 229.590406,52.89125 L236.476314,44.8041833 C230.634652,39.1187833 223.836129,35.1189167 212.591914,35.1189167 C194.112252,35.1189167 181.122529,49.6053333 181.122529,67.2925167 L181.122529,67.4693667 C181.122529,85.3334 194.376591,99.46175 212.154991,99.46175 L212.154991,99.46175 Z" id="Fill-4" fill="#FEFEFE"/>
                    <path d="M252.874037,11.72188 L240.201083,21.76958 C256.146591,32.06618 266.580314,49.7293467 267.220406,69.38808 C267.978468,66.5410133 268.542098,63.60443 268.891637,60.59143 C271.034745,42.02218 264.664406,24.43543 252.874037,11.72188" id="Fill-6" fill="#FEFEFE"/>
                    <g id="Group-10" transform="translate(185.692308, 1.801250)">
                        <mask id="mask-4" fill="white">
                            <use xlink:href="#path-3"/>
                        </mask>
                        <g id="Clip-9"/>
                        <path d="M0.687498462,15.963005 C20.6090062,8.155405 37.4873446,10.087655 54.5098677,19.958505 C52.4934677,17.8079217 50.3022985,15.773055 47.9254369,13.880105 C33.4698369,2.358655 17.4303908,-1.695795 0.606667692,1.36523833 C0.414421538,1.402355 0.687498462,15.963005 0.687498462,15.963005" id="Fill-8" fill="#FEFEFE" mask="url(#mask-4)"/>
                    </g>
                    <g id="Group-13" transform="translate(238.123077, 67.301250)">
                        <mask id="mask-6" fill="white">
                            <use xlink:href="#path-5"/>
                        </mask>
                        <g id="Clip-12"/>
                        <path d="M44.1536985,7.88532667 L29.0907754,2.00342667 C28.2212985,20.9569433 18.2026523,38.8646433 1.53622154,49.3184433 C4.37403692,48.53681 7.19874462,47.5455767 9.98194462,46.3272767 C27.1115138,38.8275267 39.1028677,24.4699267 44.1536985,7.88532667" id="Fill-11" fill="#FEFEFE" mask="url(#mask-6)"/>
                    </g>
                </g>
            </g>
        </g>
    </g>
</symbol><symbol id="download" viewBox="0 0 512 421">
    <path d="M472,222v139c0,11-9,20-20,20H60c-11,0-20-9-20-20V222H0v139c0,33.1,26.9,60,60,60h392c33.1,0,60-26.9,60-60V222H472z"/>
    <polygon points="352,144.7 276,220.7 279,-1 239,-1 236,220.7 160,144.7 131.7,173 256,297.3 380.3,173         "/>
</symbol><symbol id="electric" viewBox="0 0 13 23">
<path d="M12.9,9.6c-0.1-0.1-0.1-0.1-0.2-0.1H8.2H7.6l3.3-8.8L11,0.3c0-0.1,0-0.2,0-0.2l0,0c-0.1-0.1-0.3-0.1-0.4,0l-10.6,13
    C0,13.2,0,13.3,0,13.4c0.1,0.1,0.1,0.1,0.2,0.1h0.3h4.9l-0.2,0.5L2,22.7c0,0.1,0,0.2,0,0.2c0.1,0.1,0.3,0.2,0.4,0l0.1-0.1L12.9,10
    l0.1-0.1C13,9.8,13,9.7,12.9,9.6z"/>
</symbol><symbol id="external" viewBox="0 0 20 20">
<path d="M15,11v6c0,0.3-0.1,0.5-0.3,0.7S14.3,18,14,18H3c-0.3,0-0.5-0.1-0.7-0.3S2,17.3,2,17V6c0-0.3,0.1-0.5,0.3-0.7S2.7,5,3,5h6
    c0.6,0,1-0.4,1-1S9.6,3,9,3H3C2.2,3,1.4,3.3,0.9,3.9S0,5.2,0,6v11c0,0.8,0.3,1.6,0.9,2.1S2.2,20,3,20h11c0.8,0,1.6-0.3,2.1-0.9
    S17,17.8,17,17v-6c0-0.6-0.4-1-1-1S15,10.4,15,11z M8.7,12.7L18,3.4V7c0,0.6,0.4,1,1,1s1-0.4,1-1V1c0-0.1,0-0.3-0.1-0.4
    s-0.1-0.2-0.2-0.3c0,0,0,0,0,0c-0.1-0.1-0.2-0.2-0.3-0.2C19.3,0,19.1,0,19,0h-6c-0.6,0-1,0.4-1,1s0.4,1,1,1h3.6l-9.3,9.3
    c-0.4,0.4-0.4,1,0,1.4S8.3,13.1,8.7,12.7z"/>
</symbol><symbol id="facebook" viewBox="0 0 24 24">
    <path d="M12,0 C5.373,0 0,5.373 0,12 C0,18.627 5.373,24 12,24 C18.627,24 24,18.627 24,12 C24,5.373 18.627,0 12,0 Z M15,8 L13.65,8 C13.112,8 13,8.221 13,8.778 L13,10 L15,10 L14.791,12 L13,12 L13,19 L10,19 L10,12 L8,12 L8,10 L10,10 L10,7.692 C10,5.923 10.931,5 13.029,5 L15,5 L15,8 Z"/>
</symbol><symbol id="get-in-touch" viewBox="0 0 21 23">
    <path d="M13.5,2.36363636 C8.23079585,2.36363636 3.97058824,6.55515152 3.97058824,11.7393939 C3.97058824,16.9236364 8.23079585,21.1151515 13.5,21.1151515 L14.0605536,21.1151515 L14.0605536,24.4242424 C19.5539792,21.8872727 23.0294118,16.7030303 23.0294118,11.7393939 C23.0294118,6.55515152 18.7692042,2.36363636 13.5,2.36363636 Z"/>   
</symbol><symbol id="icon-bike" viewBox="0 0 60 60">
<path d="M47.4,25.9c-1.1,0-2.1,0.2-3,0.4l-0.9-2.2h1.8c0.6,0,1-0.4,1-1s-0.4-1-1-1h-2.6l-0.5-1.3h3.1c1.1,0,2.1-0.9,2.1-2.1V14
    c0-0.6-0.4-1-1-1s-1,0.4-1,1v4.8c0,0,0,0.1-0.1,0.1h-3.9l-2-5c-0.3-0.9-1.2-1.4-2.1-1.4h-3.7c-0.6,0-1,0.4-1,1s0.4,1,1,1h3.7
    c0.1,0,0.2,0.1,0.2,0.2l2.2,5.6c-1.9,2.7-7.7,11.2-11,14.9l-7-14.2h1.7c0.6,0,1-0.4,1-1s-0.4-1-1-1h-7.6c-0.6,0-1,0.4-1,1s0.4,1,1,1
    h3.7l1.9,3.9l0,0L18.7,28c-1.8-1.3-3.9-2-6.3-2c-6,0-10.9,4.9-10.9,10.9s4.9,10.9,10.9,10.9c5.7,0,10.3-4.4,10.8-9.9h5.2
    c0.1,0,0.3,0,0.4-0.1c0.1,0,0.1-0.1,0.1-0.1c0.1,0,0.1-0.1,0.2-0.1l0,0l0,0c2.9-2.7,8.8-11.1,11.5-15.1l1.8,4.6
    c-3.6,1.8-6,5.5-6,9.7c0,6,4.9,10.9,10.9,10.9s10.9-4.9,10.9-10.9C58.3,30.7,53.4,25.9,47.4,25.9z M22.5,26.7l4.4,9.1h-3.6
    c-0.2-2.5-1.3-4.8-3-6.6L22.5,26.7z M19.1,30.7c1.3,1.4,2.1,3.1,2.3,5h-6.7L19.1,30.7z M12.6,45.6c-4.9,0-8.9-4-8.9-8.9
    s4-8.9,8.9-8.9c1.8,0,3.6,0.6,5,1.5L11.9,36c-0.3,0.3-0.3,0.7-0.1,1.1c0.2,0.4,0.5,0.6,0.9,0.6h8.8C20.9,42.2,17.1,45.6,12.6,45.6z
     M47.4,45.6c-4.9,0-8.9-4-8.9-8.9c0-3.4,1.9-6.4,4.7-7.8l3.2,8.2c0.2,0.4,0.5,0.6,0.9,0.6c0.1,0,0.2,0,0.4-0.1
    c0.5-0.2,0.8-0.8,0.6-1.3l-3.2-8.2c0.7-0.2,1.5-0.3,2.3-0.3c4.9,0,8.9,4,8.9,8.9S52.3,45.6,47.4,45.6z"/>
</symbol><symbol id="icon-cities" viewBox="0 0 60 60">
<g>
    <g>
        <g>
            <path d="M30,60c-0.4,0-0.8-0.2-1-0.5c-0.7-1-16.2-23.4-18.9-32.6c-0.6-2-0.9-4-0.9-6.2C9.2,9.3,18.5,0,30,0
                c11.5,0,20.8,9.3,20.8,20.8c0,2.1-0.3,4.2-0.9,6.2C47.2,36.1,31.6,58.5,31,59.5C30.8,59.8,30.4,60,30,60z M30,2.4
                c-10.1,0-18.4,8.3-18.4,18.4c0,1.9,0.3,3.7,0.8,5.5c2.2,7.5,14.1,25.3,17.6,30.5c3.5-5.2,15.4-22.9,17.6-30.4c0,0,0,0,0,0
                c0.5-1.8,0.8-3.6,0.8-5.5C48.4,10.6,40.1,2.4,30,2.4z"/>
        </g>
    </g>
    <g>
        <g>
            <path d="M30,26.6c-4.5,0-8.2-3.7-8.2-8.2c0-4.5,3.7-8.2,8.2-8.2c4.5,0,8.2,3.7,8.2,8.2C38.2,22.9,34.5,26.6,30,26.6z M30,12.6
                c-3.2,0-5.8,2.6-5.8,5.8s2.6,5.8,5.8,5.8c3.2,0,5.8-2.6,5.8-5.8S33.2,12.6,30,12.6z"/>
        </g>
    </g>
</g>
</symbol><symbol id="icon-earth" viewBox="0 0 60 60">
<path d="M30,7.9C17.8,7.9,7.9,17.8,7.9,30S17.8,52.1,30,52.1S52.1,42.2,52.1,30S42.2,7.9,30,7.9z M50.1,30c0,1.5-0.2,3-0.5,4.4
    c-0.7-0.1-2.1-0.2-3.1,0.6c-0.5,0.4-1,1.1-1,2.3c0,0.6-0.1,1.1-0.3,1.3C44.8,39,43.9,39,43.1,39H43c-0.2,0-0.4,0-0.6,0
    c-0.5,0-1.3,0-1.4,0c0,0,0-0.1,0-0.3c0.2-1.5-0.5-2-1-2.5c-0.4-0.3-0.7-0.6-1.1-1.4c-0.6-1.2,0.4-1.8,0.6-2c0.1,0,0.1-0.1,0.2-0.1
    c5.3-4.6,5.7-6,4.3-8.5c-0.1-0.2-0.2-0.4-0.3-0.6c-0.8-1.6-2.3-1.9-3.2-2.1c-0.3-0.1-0.7-0.2-0.8-0.3c0-0.9,2-3.7,4-5.9
    C47.5,18.8,50.1,24.1,50.1,30z M20.5,12.3c0.8,0.6,2.7,2.1,3.3,2.8c0.9,1,2.4,2.9,2.6,3.6c-0.2,0.7-0.7,2-1,2.1
    c-0.3,0-0.5-0.1-0.8-0.1c-0.6-0.1-1.3-0.3-2.4,0.2c-1,0.5-1.5,1.2-1.8,1.7c-0.1,0.1-0.1,0.2-0.2,0.3c-0.2,0-0.4-0.1-0.6-0.1
    c-1.3-0.2-3.5-0.6-4.9,1c-2.2,2.5-0.6,4.5,0,5.2c0.1,0.1,0.2,0.3,0.3,0.4c0.6,0.9,1.5,2.2,3.3,2.1c0.6,0,1.2-0.3,1.7-0.5
    c0.9-0.4,1.7-0.8,3.1-0.1c1.6,0.8,2.6,0.9,3.2,1c0.1,0,0.3,0,0.3,0c0.1,0.1,0.3,0.4,0.5,0.7c0.8,1,2.4,3,2.8,4.1
    c-0.1,0.1-0.3,0.2-0.5,0.3c-0.7,0.4-1.8,1-2.5,2.4c-0.8,1.5-0.9,2.4-1.1,2.9c-0.1,0.3-0.1,0.4-0.1,0.5c-0.1,0.1-0.3,0.3-0.5,0.5
    c-0.5,0.5-1.1,1.2-1.6,2.1c-0.1-0.6-0.2-1.5-0.3-2.8c0-0.2-0.1-0.4-0.2-0.5c0,0-1-1.4-3-4.6c-1.1-1.8-1.2-2.7-1.3-3.4
    c-0.1-0.5-0.1-1.1-0.7-1.7c-0.4-0.4-0.9-0.6-1.4-0.9c-0.7-0.3-1.6-0.7-2.5-1.7c-0.4-0.5-0.7-1-1-1.4c-0.6-1-1.3-2-3.1-1.9
    C11.3,20.4,15.2,15.2,20.5,12.3z M30,50.1c-11.1,0-20.1-9-20.1-20.1c0-0.5,0-0.9,0.1-1.4c1-0.2,1.1-0.1,1.7,0.8
    c0.3,0.5,0.7,1.1,1.2,1.7c1.2,1.3,2.3,1.8,3.1,2.2c0.4,0.2,0.7,0.3,0.9,0.5c0,0,0.1,0.1,0.1,0.5c0.1,0.8,0.3,2.1,1.6,4.2
    c1.6,2.5,2.5,3.9,2.9,4.4c0.2,3.5,0.8,5,1.9,5.4c0.1,0,0.3,0.1,0.4,0.1c0.5,0,0.9-0.3,1.2-0.6c0.1-0.2,0.2-0.4,0.2-0.6
    c0-1,0.9-1.9,1.6-2.6c0.3-0.3,0.6-0.6,0.7-0.9c0.2-0.4,0.3-0.7,0.4-1.1c0.1-0.5,0.2-1.1,0.9-2.4c0.4-0.8,1.1-1.2,1.7-1.6
    c0.7-0.4,1.9-1.1,1.4-2.6c-0.4-1.3-1.8-3.1-3.2-4.8c-0.2-0.3-0.4-0.5-0.5-0.6c-0.5-0.7-1.2-0.8-1.7-0.8C26,29.7,25.2,29.7,24,29
    c-2.2-1.1-3.7-0.5-4.8,0c-0.4,0.2-0.7,0.3-1,0.3c-0.6,0-0.9-0.4-1.5-1.2c-0.1-0.2-0.2-0.3-0.3-0.5c-0.7-0.8-1-1.5,0-2.7
    c0.6-0.7,1.8-0.6,3.1-0.4c0.8,0.1,1.4,0.2,1.9-0.1c0.4-0.3,0.6-0.6,0.8-0.9c0.3-0.4,0.5-0.7,1-1c0.5-0.2,0.6-0.2,1.1-0.1
    c0.3,0.1,0.7,0.2,1.2,0.2c2.2,0,3-3.9,3-3.9c0.2-1.2-2.6-4.4-3.2-5.1c-0.6-0.7-1.9-1.7-2.8-2.4c2.3-0.9,4.8-1.5,7.5-1.5
    c4.5,0,8.6,1.5,11.9,3.9c-1.4,1.7-4.3,5.3-4.4,7.1c-0.1,1.8,1.4,2.1,2.4,2.3c1,0.2,1.6,0.4,1.9,1.1c0.1,0.2,0.2,0.4,0.3,0.6
    c0.7,1.3,1,1.8-3.8,6c-1,0.6-2.4,2.3-1.4,4.5c0.5,1.2,1.2,1.7,1.6,2.1c0.4,0.3,0.4,0.3,0.3,0.7c-0.1,0.8,0,1.4,0.4,1.8
    c0.6,0.7,1.5,0.8,2.4,0.8c0.2,0,0.4,0,0.6,0h0.7c1.1,0,2.6,0,3.5-1c0.6-0.6,0.9-1.5,0.9-2.7c0-0.5,0.2-0.7,0.3-0.7
    C47.9,36,48.5,36,49,36C46.4,44.3,38.9,50.1,30,50.1z"/>
</symbol><symbol id="icon-energy" viewBox="0 0 18 29">
<path d="M17,11.1h-5.5l6.1-9.9c0.1-0.2,0.1-0.5,0-0.8C17.5,0.1,17.3,0,17,0H7.1C6.7,0,6.5,0.2,6.4,0.5L0.1,16.8
    C0,17.1,0,17.3,0.1,17.5c0.1,0.2,0.4,0.3,0.6,0.3h5.7L2,27.9c-0.2,0.3,0,0.7,0.3,0.9C2.4,29,2.5,29,2.7,29c0.2,0,0.4-0.1,0.6-0.3
    l14.3-16.4c0.2-0.2,0.2-0.5,0.1-0.8C17.6,11.2,17.3,11.1,17,11.1z M5.4,24l2.9-6.6c0.1-0.2,0.1-0.5-0.1-0.7
    c-0.1-0.2-0.4-0.3-0.6-0.3H1.8L7.6,1.5h8.1l-6.1,9.9c-0.1,0.2-0.1,0.5,0,0.8c0.1,0.2,0.4,0.4,0.7,0.4h5.1L5.4,24z"/>
</symbol><symbol id="icon-fun-time" viewBox="0 0 60 60">
<g>
    <path d="M30,12.5c0.5,0,0.9-0.4,0.9-0.9V6.4c0-0.5-0.4-0.9-0.9-0.9s-0.9,0.4-0.9,0.9v5.2C29.1,12.1,29.5,12.5,30,12.5z"/>
    <path d="M33.7,13.4c0.2,0,0.4-0.1,0.6-0.3l2.7-2.7c0.3-0.3,0.3-0.9,0-1.2s-0.9-0.3-1.2,0L33,11.9c-0.3,0.3-0.3,0.9,0,1.2
        C33.2,13.3,33.4,13.4,33.7,13.4z"/>
    <path d="M25.7,13.2c0.2,0.2,0.4,0.3,0.6,0.3s0.4-0.1,0.6-0.3c0.3-0.3,0.3-0.9,0-1.2l-2.7-2.7C23.9,9,23.3,9,23,9.3s-0.3,0.9,0,1.2
        L25.7,13.2z"/>
    <path d="M51.3,26.5L51.3,26.5L45,23.2c-0.3-0.2-0.5-0.3-0.8-0.5c0.7-0.2,1.4-0.8,1.7-1.5l0.7-1.7c0.6-1.4,0-3-1.4-3.6l-0.7-0.3
        c-1.4-0.6-3,0-3.6,1.4l-0.7,1.7c-0.3,0.6-0.3,1.3-0.1,1.9L33.3,17l-1.9-2.4c-0.3-0.4-0.9-0.6-1.4-0.4c-0.5-0.2-1.1,0-1.4,0.4
        L26.7,17l-6.8,3.6c0.2-0.6,0.2-1.3-0.1-1.9L19,17c-0.6-1.4-2.2-2-3.6-1.4l-0.7,0.3c-1.4,0.6-2,2.2-1.4,3.6l0.7,1.7
        c0.3,0.8,1,1.3,1.7,1.5c-0.3,0.1-0.5,0.3-0.8,0.5l-6.2,3.3c0,0-0.1,0-0.1,0.1c-2.8,1.9-2.3,6.2-2.2,6.8v3.2c0,0.3,0.1,0.5,0.3,0.7
        c0.2,0.1,0.4,0.2,0.6,0.2h0.1c1.5-0.3,4.1-1.3,4-3.7v-3L13,30v4.7v0.1v0.1l1.9,9.1l-2.8,9.5c-0.1,0.3,0,0.6,0.1,0.8
        s0.4,0.4,0.7,0.4h2.4c0.3,0,0.6-0.1,0.7-0.4l3.3-5.1l-1,4.4c-0.1,0.3,0,0.5,0.2,0.7s0.4,0.3,0.7,0.3h2.6c0.4,0,0.7-0.2,0.8-0.6
        l4.3-11c0.1-0.3,0.1-0.6-0.1-0.8l-5.3-7.7v-2.2c0-0.5-0.4-0.9-0.9-0.9s-0.9,0.4-0.9,0.9v1.6h-5.1V27c0-1,0.4-1.6,1.1-2.1l11.9-6.3
        c0.1-0.1,0.2-0.1,0.3-0.2l1.2-1.5v1.8c0,0.6-0.3,1.1-0.9,1.4l-7.9,4.4c-0.3,0.2-0.5,0.4-0.4,0.8v2.5c0,0.5,0.4,0.9,0.9,0.9l0,0
        c0.5,0,0.9-0.4,0.9-0.9v-2l7.5-4.1c0.3-0.2,0.6-0.4,0.9-0.7c0.3,0.3,0.5,0.5,0.9,0.7l7.5,4.2v6.5l0,0l0,0v2.2L33.1,42
        c-0.2,0.2-0.2,0.5-0.1,0.8l4.3,11c0.1,0.3,0.5,0.6,0.8,0.6h2.6c0.3,0,0.5-0.1,0.7-0.3s0.2-0.5,0.2-0.7l-1-4.4l3.3,5.1
        c0.2,0.2,0.4,0.4,0.7,0.4H47c0.3,0,0.5-0.1,0.7-0.4s0.2-0.5,0.1-0.8L45,43.8l1.9-9.1v-0.1v-0.1v-4.7l1.6,0.8v2.9
        c-0.1,2.4,2.5,3.5,4,3.7h0.1c0.2,0,0.4-0.1,0.6-0.2c0.2-0.2,0.3-0.4,0.3-0.7v-3.2C53.7,32.7,54.2,28.5,51.3,26.5z M14.9,18.8
        c-0.2-0.5,0-1.1,0.5-1.3l0.7-0.3c0.1-0.1,0.3-0.1,0.4-0.1c0.4,0,0.8,0.2,0.9,0.6l0.7,1.7c0.2,0.5,0,1.1-0.5,1.3L17,21
        c-0.5,0.2-1.1,0-1.3-0.5L14.9,18.8z M20.3,35.5l4.9,7.2l-3.9,10.1h-0.9l1.8-8l0,0c0-0.1,0-0.2,0-0.3l0,0c0-0.1,0-0.2-0.1-0.2
        l-2.4-4.9C19.5,39,19,38.8,18.5,39c-0.4,0.2-0.6,0.7-0.4,1.2l2.2,4.4l-5.5,8.3H14l2.5-8.5c0-0.1,0-0.3,0-0.4l-1.7-8.3h5.5V35.5z
         M13,26.9V28l-2.8,1.5c-0.3,0.2-0.5,0.4-0.5,0.8v3.5c0,0.8-0.8,1.3-1.5,1.6v-2.1v-0.1c0,0-0.6-3.7,1.4-5.2l3.5-1.8
        C13,26.4,13,26.6,13,26.9z M41.8,19.4l0.7-1.7c0.2-0.5,0.8-0.7,1.3-0.5l0.7,0.3c0.5,0.2,0.7,0.8,0.5,1.3l-0.7,1.7
        C44.1,21,43.5,21.2,43,21l-0.7-0.3C41.8,20.5,41.6,19.9,41.8,19.4z M31.7,19.9c-0.5-0.3-0.8-0.8-0.8-1.4l0,0v-1.7l1.2,1.5
        c0.1,0.1,0.2,0.2,0.3,0.2l11.9,6.3c0.7,0.5,1.1,1.2,1.1,2.1v6.9h-5.1v-1.6v-7c0-0.3-0.2-0.6-0.4-0.8L31.7,19.9z M45.9,52.7h-0.8
        l-5.5-8.3l2.2-4.4c0.2-0.4,0-1-0.4-1.2s-1,0-1.2,0.4l-2.4,4.9c0,0.1-0.1,0.1-0.1,0.2l0,0c0,0.1,0,0.2,0,0.3l0,0l1.8,8h-0.9
        l-3.9-10.1l4.9-7.2H45l-1.7,8.3c0,0.1,0,0.3,0,0.4L45.9,52.7z M51.8,33.2L51.8,33.2v2.2c-0.7-0.3-1.5-0.8-1.5-1.7v-3.5
        c0-0.3-0.2-0.6-0.5-0.8L47,27.9v-1.1c0-0.2,0-0.5-0.1-0.7l3.5,1.8C52.4,29.4,51.8,33.1,51.8,33.2z"/>
</g>
</symbol><symbol id="icon-joyful" viewBox="0 0 60 60">
<g>
    <path d="M20.4,21.6c-0.2-0.2-0.6-0.3-0.9-0.3c-0.3,0.1-0.6,0.3-0.7,0.6L5.3,51.2c-0.5,1.1-0.3,2.3,0.6,3.2c0.5,0.5,1.2,0.8,2,0.8
        c0.4,0,0.8-0.1,1.2-0.3l29-13.6c0.3-0.1,0.5-0.4,0.6-0.7s0-0.6-0.3-0.9L20.4,21.6z M20,24l10,10c-7.9,0-12-3.5-12.7-4.1L20,24z
         M8.2,53.1c-0.5,0.2-0.8-0.1-0.9-0.2c-0.1-0.1-0.4-0.4-0.2-0.9l2.7-6c0.9,1,2.5,2.3,5.1,3.8L8.2,53.1z M28,43.7L28,43.7
        c-1.5-0.2-3-0.6-4.4-1.2c-0.5-0.2-1.1,0.1-1.3,0.6c-0.2,0.5,0.1,1.1,0.6,1.3c0.7,0.3,1.4,0.5,2.1,0.7l-7.8,3.7
        c-4.2-2.2-5.9-4-6.5-4.8l2.6-5.7c0.6,0.5,1.3,1.2,2.3,1.9c0.2,0.1,0.4,0.2,0.6,0.2c0.3,0,0.6-0.1,0.8-0.4c0.3-0.4,0.3-1.1-0.2-1.4
        c-1.2-0.9-2.1-1.8-2.6-2.3l2.2-4.7c1.6,1.3,6,4.3,13.7,4.3c0.4,0,0.9,0,1.4,0c0.1,0,0.3,0,0.4-0.1l4.1,4.1L28,43.7z"/>
    <path d="M24.8,16.3l-1,1c-1,1-1,2.7,0,3.7l0.5,0.5c0.5,0.5,1.2,0.8,1.8,0.8c0.7,0,1.3-0.3,1.8-0.8l1.6-1.6c0,0,0.1,0,0.1-0.1
        l0.5-0.5c1.7-1.7,1.7-4.4,0-6l-2.5-2.5l0.9-0.9c1-1,1-2.7,0-3.7L28,5.7c-1-1-2.7-1-3.7,0L23,7.2c0,0-0.1,0-0.1,0.1l-0.5,0.5
        c-0.8,0.8-1.2,1.9-1.2,3s0.4,2.2,1.2,3L24.8,16.3z M26.6,20.1c-0.2,0.2-0.6,0.2-0.9,0l-0.5-0.5c-0.2-0.2-0.2-0.6,0-0.9l1-1l1.4,1.4
        L26.6,20.1z M29,17.7l-5.3-5.3c-0.4-0.4-0.7-1-0.7-1.6c0-0.5,0.2-1,0.5-1.4l2.1,2.1c0,0,0.1,0.1,0.2,0.1l3,3
        C29.7,15.5,29.8,16.8,29,17.7z M26.8,7l0.5,0.5c0.2,0.2,0.2,0.6,0,0.9l-0.9,0.9L25,8l1-1C26.2,6.8,26.6,6.8,26.8,7z"/>
    <path d="M54.2,32.2l-0.5-0.5c-1-1-2.7-1-3.7,0l-0.9,0.9l-2.5-2.5c-1.7-1.7-4.4-1.7-6,0L40,30.7c0,0,0,0.1-0.1,0.1l-1.6,1.6
        c-1,1-1,2.7,0,3.7l0.5,0.5c0.5,0.5,1.2,0.8,1.8,0.8c0.7,0,1.3-0.3,1.8-0.8l1-1l2.5,2.5c0.8,0.8,1.9,1.2,3,1.2s2.2-0.4,3-1.2
        l0.5-0.5c0,0,0-0.1,0.1-0.1l1.6-1.6C55.2,34.9,55.2,33.2,54.2,32.2z M41.2,35.2c-0.2,0.2-0.6,0.2-0.9,0l-0.5-0.5
        c-0.2-0.2-0.2-0.6,0-0.9l1-1l1.4,1.4L41.2,35.2z M47.4,36.7l-5.3-5.3c0.9-0.7,2.2-0.7,3,0.2l3,3c0,0.1,0.1,0.1,0.1,0.2l2.1,2.1
        C49.6,37.5,48.2,37.5,47.4,36.7z M52.8,34.5l-0.9,0.9L50.5,34l0.9-0.9c0.2-0.2,0.6-0.2,0.9,0l0.5,0.5C53,33.9,53,34.2,52.8,34.5z"/>
    <path d="M43.2,17.6c0.6,0.6,1.3,0.9,2.1,0.9s1.5-0.3,2.1-0.9L48,17c0.6-0.6,0.9-1.3,0.9-2.1s-0.3-1.5-0.9-2.1l-0.6-0.6
        c-1.2-1.2-3-1.2-4.2,0l-0.6,0.6c-0.6,0.6-0.9,1.3-0.9,2.1s0.3,1.5,0.9,2.1L43.2,17.6z M44,14.2l0.6-0.6c0.2-0.2,0.4-0.3,0.7-0.3
        s0.5,0.1,0.7,0.3l0.6,0.6c0.2,0.2,0.3,0.4,0.3,0.7s-0.1,0.5-0.3,0.7L46,16.2c-0.4,0.4-1,0.4-1.3,0L44,15.6
        c-0.2-0.2-0.3-0.4-0.3-0.7C43.7,14.7,43.8,14.4,44,14.2z"/>
    <path d="M34.6,27.1c0.8,0,1.4-0.6,1.4-1.4s-0.6-1.4-1.4-1.4s-1.4,0.6-1.4,1.4C33.1,26.5,33.8,27.1,34.6,27.1z"/>
    <circle cx="35.3" cy="16.6" r="1.4"/>
    <path d="M38.4,9c0.8,0,1.4-0.6,1.4-1.4s-0.6-1.4-1.4-1.4c-0.8,0-1.4,0.6-1.4,1.4S37.6,9,38.4,9z"/>
    <circle cx="51.9" cy="8.3" r="1.4"/>
    <circle cx="52.7" cy="21.9" r="1.4"/>
    <circle cx="43.7" cy="24.9" r="1.4"/>
    <path d="M20.4,41c-0.2-0.1-0.3-0.2-0.5-0.3c-0.5-0.3-1.1-0.1-1.4,0.4s-0.1,1.1,0.4,1.4c0.2,0.1,0.4,0.2,0.5,0.3
        c0.2,0.1,0.3,0.1,0.5,0.1c0.3,0,0.7-0.2,0.9-0.5C21.1,41.9,20.9,41.3,20.4,41z"/>
</g>
</symbol><symbol id="icon-leaf" viewBox="0 0 22.5 30.2">
<path d="M22.5,0.8c0-0.2-0.1-0.5-0.3-0.6c-0.3-0.2-0.8-0.1-1,0.2C20.1,2,17,3,13.7,4.2C9.3,5.7,4.3,7.4,1.8,11.3
    c-3.2,5-2,11.7,2.5,15.3l-1.6,2.5c-0.2,0.3-0.1,0.8,0.2,1c0.1,0.1,0.3,0.1,0.4,0.1c0.2,0,0.5-0.1,0.6-0.3l1.6-2.5
    c1.7,1,3.5,1.5,5.4,1.5c0.7,0,1.4-0.1,2.1-0.2c2.9-0.6,5.4-2.3,7-4.9c2.5-3.8,2.1-9.3,1.7-14.1c-0.3-3.5-0.5-6.9,0.5-8.5
    C22.4,1,22.5,0.9,22.5,0.8z M18.9,23c-1.4,2.2-3.6,3.7-6.1,4.2c-2.2,0.5-4.5,0.1-6.4-1.1l1.9-3l6.5-1.4c0.4-0.1,0.7-0.5,0.6-0.9
    s-0.5-0.7-0.9-0.6l-5,1.1l2.4-3.8l4.3-0.9c0.4-0.1,0.7-0.5,0.6-0.9c-0.1-0.4-0.5-0.7-0.9-0.6L13,15.8l2.2-3.4c0.2-0.3,0.1-0.8-0.2-1
    c-0.3-0.2-0.8-0.1-1,0.2L11.8,15l-0.6-3c-0.1-0.4-0.5-0.7-0.9-0.6c-0.4,0.1-0.7,0.5-0.6,0.9l0.9,4.5l-2.4,3.7l-1-5.2
    c-0.1-0.4-0.5-0.7-0.9-0.6c-0.4,0.1-0.7,0.5-0.6,0.9L7,22.3l-1.9,3c-3.9-3.1-4.8-8.9-2.1-13.2C5.3,8.7,10,7,14.2,5.6
    c2.3-0.8,4.4-1.5,6-2.5C20,5,20.2,7.3,20.3,9.8C20.7,14.4,21.1,19.6,18.9,23z"/>
</symbol><symbol id="icon-lock" viewBox="0 0 51.9 69.2">
<path d="M45.4,25.9h-2.2v-8.6C43.2,7.7,35.5,0,25.9,0S8.6,7.7,8.6,17.3v8.6H6.5c-3.6,0-6.5,2.9-6.5,6.5v30.3c0,3.6,2.9,6.5,6.5,6.5
    h38.9c3.6,0,6.5-2.9,6.5-6.5V32.4C51.9,28.8,49,25.9,45.4,25.9z M13,15.3c0.6-7.2,6.8-12.5,14-11.9c7.2,0.6,12.5,6.8,11.9,14v8.6H13
    v-8.6C12.9,16.6,12.9,15.9,13,15.3z M47.5,62.7c0,1.2-1,2.2-2.2,2.2H6.5c-1.2,0-2.2-1-2.2-2.2V32.4c0-1.2,1-2.2,2.2-2.2h38.9
    c1.2,0,2.2,1,2.2,2.2V62.7z"/>
</symbol><symbol id="icon-money-hand" viewBox="0 0 89.3 89.4">
<path d="M41.1,60.6c0.7-0.7,0.7-1.8,0-2.5c-0.7-0.7-1.8-0.7-2.4,0c0,0,0,0,0,0c-0.7,0.7-0.7,1.8,0,2.5S40.4,61.3,41.1,60.6"/>
<path d="M67.7,19.2c0,8.7-7,15.7-15.7,15.7c-8.7,0-15.7-7-15.7-15.7S43.3,3.5,52,3.5c0,0,0,0,0,0C60.7,3.5,67.7,10.5,67.7,19.2
     M32.8,19.2c0,10.6,8.6,19.2,19.2,19.2s19.2-8.6,19.2-19.2S62.6,0,52,0c0,0,0,0,0,0C41.4,0,32.8,8.6,32.8,19.2"/>
<path d="M11.3,60.8c0.6-0.6,1.5-0.7,2.2-0.2c0.3,0.2-0.6-0.6,15.1,15c0.7,0.7,0.7,1.8,0,2.5l-7.2,7.1L4.2,67.9L11.3,60.8z
     M33.2,49.2c2.6,0,5.3,0.5,7.7,1.6c0.2,0.1,0.5,0.2,0.7,0.2h19.8c1.9,0,3.5,1.6,3.5,3.5S63.3,58,61.3,58H47.1c-1,0-1.7,0.8-1.7,1.7
    c0,1,0.8,1.7,1.7,1.7c0,0,0,0,0,0h14.2c3.9,0,7-3.1,7-7c0-0.3,0-0.6-0.1-0.9l11.4-11.7c1.2-1.5,3.3-1.9,4.9-0.7
    c1.5,1.2,1.9,3.3,0.7,4.9c-0.1,0.1-0.2,0.2-0.3,0.3L69.4,65c-2.3,2.2-5.3,3.4-8.5,3.4H37.7c-2.3,0-4.4,0.9-6,2.4l-1.5,1.4L16.5,58.6
    C19.7,52.6,25.7,49.2,33.2,49.2 M20.2,88.8c0.7,0.7,1.8,0.7,2.5,0l8.4-8.3c1.4-1.4,1.9-3.5,1.2-5.4l1.8-1.8c1-0.9,2.3-1.5,3.6-1.5
    h23.2c4.1,0,8.1-1.6,11-4.4c0.1-0.1-0.9,1.1,15.8-18.9c2.3-3.1,1.6-7.5-1.5-9.8c-2.8-2-6.7-1.7-9.1,0.7L66.8,50
    c-1.3-1.6-3.3-2.6-5.4-2.6H41.9c-2.8-1.2-5.7-1.8-8.7-1.8c-8.4,0-15.7,3.9-19.7,11.2c-1.7-0.3-3.4,0.2-4.7,1.4l-8.3,8.3
    c-0.7,0.7-0.7,1.8,0,2.5L20.2,88.8z"/>
<path d="M49.9,8.7v2c-2.7,0.9-4.2,3.9-3.2,6.7c0.7,2.1,2.7,3.5,5,3.5c1,0.1,1.7,0.9,1.6,1.9c-0.1,0.9-0.8,1.5-1.6,1.6
    c-0.9-0.1-1.7-0.6-2.3-1.3c-0.6-0.7-1.7-0.8-2.5-0.2c-0.7,0.6-0.8,1.7-0.2,2.5c0.8,1,1.9,1.8,3.2,2.3v2c-0.1,1,0.6,1.8,1.6,1.9
    c1,0.1,1.8-0.6,1.9-1.6c0-0.1,0-0.2,0-0.3v-2c2.7-0.9,4.2-3.9,3.2-6.7c-0.7-2.1-2.7-3.5-5-3.5c-1,0.1-1.8-0.6-1.9-1.6
    s0.6-1.8,1.6-1.9c0.1,0,0.2,0,0.3,0c0.7,0,1.4,0.4,1.9,0.9c0.7,0.6,1.8,0.5,2.5-0.2c0.5-0.6,0.5-1.6,0-2.2c-0.7-0.7-1.6-1.3-2.6-1.6
    v-2c-0.1-1-0.9-1.7-1.9-1.6C50.7,7.2,50,7.9,49.9,8.7"/>
</symbol><symbol id="icon-patents" viewBox="0 0 60 60">
<g>
    <path d="M41.3,16.2c-0.5,0.3-0.7,0.9-0.4,1.3c0.9,1.7,1.3,3.6,1.3,5.6c0,6.8-5.5,12.3-12.3,12.3c-2.8,0-5.5-0.9-7.7-2.7
        c-0.4-0.3-1.1-0.3-1.4,0.2c-0.3,0.4-0.3,1.1,0.2,1.4c2.5,2,5.7,3.1,8.9,3.1c7.9,0,14.3-6.4,14.3-14.3c0-2.3-0.5-4.5-1.6-6.5
        C42.4,16.1,41.8,15.9,41.3,16.2z"/>
    <path d="M39.2,15c0.2,0.2,0.5,0.3,0.8,0.3c0.2,0,0.5-0.1,0.7-0.2c0.4-0.4,0.5-1,0.1-1.4c-0.4-0.5-0.9-1-1.4-1.4
        c-0.4-0.4-1-0.3-1.4,0.1c-0.4,0.4-0.3,1.1,0.1,1.4C38.4,14.2,38.8,14.6,39.2,15z"/>
    <path d="M17.7,23.1c0-6.8,5.5-12.3,12.3-12.3c1.9,0,3.7,0.4,5.4,1.2c0.5,0.2,1.1,0,1.3-0.5s0-1.1-0.5-1.3c-2-1-4.1-1.4-6.2-1.4
        c-7.9,0-14.3,6.4-14.3,14.3c0,3.2,1,6.2,3,8.7c0.2,0.3,0.5,0.4,0.8,0.4c0.2,0,0.4-0.1,0.6-0.2c0.4-0.3,0.5-1,0.2-1.4
        C18.6,28.5,17.7,25.9,17.7,23.1z"/>
    <path d="M38.9,21c-0.1-0.4-0.4-0.6-0.8-0.7l-4.8-0.6L31,15.2c-0.2-0.3-0.5-0.6-0.9-0.6s-0.7,0.2-0.9,0.6l-2.1,4.5l-5,0.7
        c-0.4,0-0.7,0.3-0.8,0.7s0,0.8,0.3,1l3.6,3.4l-0.9,4.9c-0.1,0.4,0.1,0.8,0.4,1s0.7,0.3,1.1,0.1l4.4-2.4l4.4,2.4
        c0.1,0.1,0.3,0.1,0.5,0.1s0.4-0.1,0.6-0.2c0.3-0.2,0.5-0.6,0.4-1l-1-4.8l3.8-3.6C38.9,21.8,39,21.4,38.9,21z M33.1,24.6
        c-0.3,0.2-0.4,0.6-0.3,0.9l0.7,3.2l-2.9-1.6c-0.3-0.2-0.7-0.2-0.9,0l-3,1.6l0.6-3.4c0.1-0.3-0.1-0.7-0.3-0.9L24.5,22l3.5-0.5
        c0.3,0,0.6-0.3,0.8-0.6l1.4-3.1l1.6,3.2c0.1,0.3,0.4,0.5,0.8,0.5l3.3,0.4L33.1,24.6z"/>
    <path d="M46.2,35.1c0.8-1.1,0.9-2.5,1-3.9c0-0.8,0.1-1.6,0.3-2.2s0.6-1.2,1-1.9c0.7-1.1,1.6-2.3,1.6-3.8s-0.8-2.7-1.5-3.8
        c-0.4-0.7-0.9-1.3-1-1.9c-0.2-0.6-0.2-1.4-0.3-2.2c-0.1-1.4-0.1-2.8-1-3.9c-0.8-1.2-2.2-1.7-3.4-2.1c-0.8-0.3-1.5-0.6-2-0.9
        c-0.5-0.4-1-1-1.5-1.6c-0.8-1-1.7-2.2-3.1-2.6c-1.3-0.4-2.7-0.1-4,0.3C31.4,4.8,30.7,5,30,5s-1.4-0.2-2.2-0.4
        c-1.3-0.4-2.6-0.7-4-0.3s-2.3,1.6-3.1,2.6c-0.5,0.6-1,1.2-1.5,1.6c-0.5,0.4-1.2,0.7-2,0.9c-1.2,0.5-2.6,1-3.4,2.1
        c-0.8,1.1-0.9,2.5-1,3.9c0,0.8-0.1,1.6-0.3,2.2s-0.6,1.2-1,1.9c-0.7,1.1-1.6,2.3-1.6,3.8s0.8,2.7,1.5,3.8c0.4,0.7,0.9,1.3,1,1.9
        c0.2,0.6,0.2,1.4,0.3,2.2c0.1,1.4,0.1,2.8,1,3.9c0.8,1.2,2.2,1.7,3.4,2.1c0.3,0.1,0.6,0.2,0.9,0.4l-6,13.2c-0.1,0.3-0.1,0.7,0.1,1
        s0.6,0.4,0.9,0.4l4.6-0.5l2.5,3.7c0.2,0.3,0.5,0.4,0.8,0.4H21c0.4,0,0.7-0.2,0.8-0.6L28.3,42c0.6-0.2,1.1-0.3,1.7-0.3
        c0.5,0,1.1,0.1,1.7,0.3L38,55.4c0.2,0.3,0.5,0.5,0.8,0.6c0,0,0,0,0.1,0c0.3,0,0.6-0.2,0.8-0.4l2.5-3.7l4.6,0.5
        c0.4,0,0.7-0.1,0.9-0.4c0.2-0.3,0.2-0.7,0.1-1l-6-13.2c0.3-0.1,0.6-0.2,0.9-0.4C44,36.8,45.4,36.3,46.2,35.1z M21,52.9l-1.9-2.8
        c-0.2-0.3-0.6-0.5-0.9-0.4l-3.5,0.4l5.1-11.3c0.3,0.3,0.6,0.7,0.9,1c0.3,0.4,0.6,0.8,1,1.2l-2.8,5.9c-0.2,0.5,0,1.1,0.5,1.3
        c0.1,0.1,0.3,0.1,0.4,0.1c0.4,0,0.7-0.2,0.9-0.6l2.7-5.6c0.2,0.1,0.3,0.2,0.5,0.2c0.7,0.2,1.4,0.2,2.1,0.1L21,52.9z M41.9,49.7
        c-0.4,0-0.7,0.1-0.9,0.4l-1.9,2.8l-4.9-10.3c0.2,0,0.5,0,0.7,0c0.4,0,0.9-0.1,1.3-0.2c0.2-0.1,0.4-0.1,0.6-0.2l2.7,5.6
        c0.2,0.4,0.5,0.6,0.9,0.6c0.1,0,0.3,0,0.4-0.1c0.5-0.2,0.7-0.8,0.5-1.3l-2.9-6c0.3-0.4,0.6-0.7,0.9-1.1c0.3-0.4,0.6-0.8,0.9-1.1
        l5.1,11.4L41.9,49.7z M39.6,36.6c-0.7,0.5-1.3,1.3-1.9,2c-0.7,0.9-1.4,1.7-2.2,2c-0.8,0.2-1.8,0-2.8-0.3C31.9,40,31,39.7,30,39.7
        s-1.9,0.3-2.8,0.5c-1.1,0.3-2.1,0.6-2.8,0.3c-0.8-0.3-1.5-1.1-2.2-2c-0.6-0.7-1.1-1.4-1.9-2c-0.7-0.5-1.6-0.9-2.5-1.2
        c-1-0.4-2-0.8-2.5-1.4c-0.5-0.7-0.5-1.7-0.6-2.8c0-0.9-0.1-1.9-0.4-2.7C14,27.6,13.5,26.8,13,26c-0.6-0.9-1.2-1.8-1.2-2.7
        s0.6-1.8,1.2-2.7c0.5-0.7,1-1.5,1.3-2.4s0.3-1.8,0.4-2.7c0.1-1.1,0.1-2.2,0.6-2.8c0.5-0.7,1.5-1,2.5-1.4c0.9-0.3,1.7-0.7,2.5-1.2
        c0.7-0.5,1.3-1.3,1.9-2c0.7-0.9,1.4-1.7,2.2-2c0.8-0.2,1.8,0,2.8,0.3C28.1,6.7,29,7,30,7s1.9-0.3,2.8-0.5c1.1-0.3,2.1-0.6,2.8-0.3
        c0.8,0.3,1.5,1.1,2.2,2c0.6,0.7,1.1,1.4,1.9,2c0.7,0.5,1.6,0.9,2.5,1.2c1,0.4,2,0.8,2.5,1.4c0.5,0.7,0.5,1.7,0.6,2.8
        c0,0.9,0.1,1.9,0.4,2.7c0.3,0.8,0.8,1.6,1.3,2.4c0.6,0.9,1.2,1.8,1.2,2.7c0,0.9-0.6,1.8-1.2,2.7c-0.5,0.7-1,1.5-1.3,2.4
        s-0.3,1.8-0.4,2.7c-0.1,1.1-0.1,2.2-0.6,2.8c-0.5,0.7-1.5,1-2.5,1.4C41.2,35.7,40.4,36,39.6,36.6z"/>
</g>
</symbol><symbol id="icon-pbsc-campus" viewBox="0 0 60 60">
<g>
    <path d="M51.6,9.2c0-0.2-0.2-0.4-0.3-0.5S51,8.5,50.8,8.4c-0.6-0.1-14.2-3.3-25.5,8c-1.2,1.2-2.2,2.3-3.2,3.5
        c-0.2-0.1-0.4-0.2-0.6-0.1L15,20.6c-0.9,0.1-1.6,0.6-2.1,1.3l-4.4,6.4c-0.4,0.6-0.5,1.4-0.2,2.1s0.9,1.1,1.7,1.2l5.1,0.6
        c-0.4,1.8-0.3,2.9-0.3,2.9c0,0.2,0.1,0.4,0.3,0.6l9.3,9.3c0.2,0.2,0.4,0.3,0.6,0.3c0,0,0.2,0,0.5,0c0.5,0,1.2-0.1,2.3-0.3l0.5,4.9
        c0.1,0.7,0.5,1.4,1.2,1.7c0.3,0.1,0.6,0.2,0.9,0.2c0.4,0,0.8-0.1,1.2-0.4L38,47c0.7-0.5,1.2-1.3,1.3-2.1l0.8-6.5c0-0.1,0-0.2,0-0.4
        c1.1-1,2.3-2,3.5-3.3C54.9,23.4,51.8,9.8,51.6,9.2z M15.7,30l-5.4-0.6l-0.1-0.1l4.4-6.4c0.2-0.2,0.4-0.4,0.7-0.4l5.2-0.6
        c-1.3,1.7-2.3,3.3-3.2,4.9C16.7,28,16.2,29.1,15.7,30C15.8,30.1,15.8,30,15.7,30z M16.9,34.4c0-0.7,0.2-2.7,1.7-5.7l12.8,12.8
        c-3,1.4-5,1.6-5.7,1.7L16.9,34.4z M37.4,44.5c0,0.3-0.2,0.5-0.4,0.7l-6.4,4.4l0.6,0.8l-0.7-0.9l-0.6-5.3c2.1-0.7,4.9-2.1,8.2-4.6
        L37.4,44.5z M33.2,40.5L19.6,26.9c1.7-2.9,4.1-6,7.2-9.1c9.2-9.2,20.4-8,23-7.5c0.4,2.6,1.7,13.8-7.5,23
        C38.8,36.8,35.7,39,33.2,40.5z"/>
    <path d="M18.1,41.8c-0.4-0.4-1-0.4-1.4,0l-8.5,8.5c-0.4,0.4-0.4,1,0,1.4C8.4,51.9,8.7,52,8.9,52s0.5-0.1,0.7-0.3l8.5-8.5
        C18.5,42.9,18.5,42.2,18.1,41.8z"/>
    <path d="M20.6,45.8L16,50.4c-0.4,0.4-0.4,1,0,1.4c0.2,0.2,0.5,0.3,0.7,0.3s0.5-0.1,0.7-0.3l4.6-4.6c0.4-0.4,0.4-1,0-1.4
        S21,45.4,20.6,45.8z"/>
    <path d="M8.9,44.2c0.3,0,0.5-0.1,0.7-0.3l4.6-4.6c0.4-0.4,0.4-1,0-1.4s-1-0.4-1.4,0l-4.6,4.6c-0.4,0.4-0.4,1,0,1.4
        C8.4,44.1,8.6,44.2,8.9,44.2z"/>
    <path d="M38.4,15.6c-1.6,0-3.2,0.6-4.3,1.8s-1.8,2.7-1.8,4.3s0.6,3.2,1.8,4.3s2.7,1.8,4.3,1.8s3.2-0.6,4.3-1.8s1.8-2.7,1.8-4.3
        s-0.6-3.2-1.8-4.3S40,15.6,38.4,15.6z M41.3,24.6c-1.6,1.6-4.2,1.6-5.8,0s-1.6-4.2,0-5.8c0.8-0.8,1.9-1.2,2.9-1.2s2.1,0.4,2.9,1.2
        C42.9,20.4,42.9,23,41.3,24.6z"/>
</g>
</symbol><symbol id="icon-smart-dock" viewBox="0 0 60 60">
<path d="M47.7,46.5H44v-34c0-0.6-0.4-1-1-1H33c-0.5,0-0.9,0.3-1,0.8l-7.5,34.3H12.3c-0.6,0-1,0.4-1,1s0.4,1,1,1h35.4
    c0.6,0,1-0.4,1-1S48.2,46.5,47.7,46.5z M33.8,13.5H42v33.1H26.6L33.8,13.5z"/>
</symbol><symbol id="icon-smart-station" viewBox="0 0 60 60">
<g>
    <path d="M30.2,39c-1.5,0-2.7,1.2-2.7,2.7s1.2,2.7,2.7,2.7s2.7-1.2,2.7-2.7S31.7,39,30.2,39z M30.2,42.4c-0.4,0-0.7-0.3-0.7-0.7
        s0.3-0.7,0.7-0.7c0.4,0,0.7,0.3,0.7,0.7S30.6,42.4,30.2,42.4z"/>
    <path d="M51.9,20.7c-5.9-5.6-13.6-8.6-21.7-8.6s-15.8,3.1-21.7,8.7c-0.4,0.4-0.4,1,0,1.4c0.2,0.2,0.5,0.3,0.7,0.3s0.5-0.1,0.7-0.3
        c5.6-5.2,12.8-8.1,20.3-8.1S45,17,50.5,22.2c0.4,0.4,1,0.4,1.4,0C52.3,21.7,52.3,21.1,51.9,20.7z"/>
    <path d="M30.3,22.1c-5.6,0-11,2.2-15.1,6.2c-0.4,0.4-0.4,1,0,1.4c0.2,0.2,0.5,0.3,0.7,0.3c0.3,0,0.5-0.1,0.7-0.3
        c3.7-3.6,8.6-5.6,13.7-5.6c5,0,9.8,1.9,13.5,5.4c0.4,0.4,1,0.4,1.4,0s0.4-1,0-1.4C41.1,24.2,35.8,22.1,30.3,22.1z"/>
    <path d="M30.4,32.1c-3.1,0-6.1,1.3-8.4,3.5c-0.4,0.4-0.4,1,0,1.4c0.2,0.2,0.4,0.3,0.7,0.3c0.3,0,0.5-0.1,0.7-0.3
        c1.9-1.9,4.4-2.9,7-2.9c2.4,0,4.8,0.9,6.6,2.6c0.4,0.4,1,0.3,1.4-0.1c0.4-0.4,0.3-1-0.1-1.4C36.1,33.2,33.3,32.1,30.4,32.1z"/>
</g>
</symbol><symbol id="icon-smile" viewBox="0 0 60 60">
<g>
    <path d="M45.5,14.2c-1.8-1.8-7.9-6.4-15.7-6.4c-5.9,0-11.5,2.4-15.6,6.6s-6.4,9.8-6.4,15.7s2.4,11.5,6.6,15.6s9.7,6.4,15.5,6.4h0.2
        c5.9,0,11.5-2.4,15.6-6.6s6.4-9.8,6.4-15.7C52.1,27.2,51.2,19.9,45.5,14.2z M47.6,20.2c-4.2-1-8-3.4-10.8-6.8
        c0.6-0.5,1.2-1.1,1.7-1.7c2.1,1,4,2.3,5.6,3.9C45.5,17,46.7,18.5,47.6,20.2z M15.6,15.9c3.8-3.8,8.8-6,14.2-6H30
        c2.2,0,4.4,0.4,6.5,1.1c-0.4,0.5-0.9,0.9-1.4,1.3c-0.1,0-0.6,0.5-0.7,0.6c-4.5,3.6-10.5,5.6-16.9,5.7c-1.3,0-2.6-0.1-3.9-0.2
        C14.2,17.4,14.9,16.6,15.6,15.9z M44.4,44.1c-3.8,3.8-8.8,6-14.2,6s-10.5-2-14.3-5.8s-6-8.8-6-14.2c0-3.6,0.9-7,2.6-10
        c1.6,0.2,3.2,0.4,4.8,0.4h0.2c6.6-0.1,12.9-2.2,17.7-5.8c3.4,4.1,8.2,6.9,13.5,7.7c0.9,2.3,1.4,4.8,1.5,7.4
        C50.2,35.2,48.1,40.3,44.4,44.1z"/>
    <path d="M19.7,27.3c0.5,0,0.9-0.3,1-0.8c0.1-0.8,0.8-1.4,1.6-1.4c0.8,0,1.5,0.6,1.6,1.3c0.1,0.5,0.6,0.9,1.2,0.8
        c0.5-0.1,0.9-0.6,0.8-1.2c-0.3-1.7-1.9-3-3.6-3c-1.8,0-3.3,1.3-3.6,3c-0.1,0.5,0.3,1.1,0.8,1.2C19.6,27.3,19.6,27.3,19.7,27.3z"/>
    <path d="M34.8,27.2H35c0.5,0,0.9-0.3,1-0.8c0.1-0.8,0.8-1.4,1.6-1.4s1.5,0.6,1.6,1.3c0.1,0.5,0.6,0.9,1.2,0.8
        c0.5-0.1,0.9-0.6,0.8-1.2c-0.3-1.7-1.8-3-3.6-3s-3.3,1.3-3.6,3C33.9,26.6,34.3,27.1,34.8,27.2z"/>
    <path d="M40.6,33.6l-20.5,0.2c-0.3,0-0.6,0.1-0.8,0.4c-0.2,0.2-0.3,0.5-0.2,0.8c1.1,5.4,5.8,9.2,11.2,9.2h0.1
        c5.5,0,10.2-4,11.2-9.4c0.1-0.3,0-0.6-0.2-0.8S40.9,33.6,40.6,33.6z M30.4,42.2c-4.2,0-7.8-2.6-9-6.4l18-0.1
        C38.1,39.5,34.5,42.2,30.4,42.2z"/>
</g>
</symbol><symbol id="instagram" viewBox="0 0 24 24">
    <path d="M14.829,6.302 C14.091,6.268 13.869,6.262 12,6.262 C10.131,6.262 9.91,6.269 9.172,6.302 C7.273,6.389 6.389,7.288 6.302,9.172 C6.269,9.91 6.261,10.131 6.261,12 C6.261,13.869 6.269,14.09 6.302,14.829 C6.389,16.708 7.269,17.612 9.172,17.699 C9.909,17.732 10.131,17.74 12,17.74 C13.87,17.74 14.091,17.733 14.829,17.699 C16.728,17.613 17.611,16.711 17.699,14.829 C17.732,14.091 17.739,13.869 17.739,12 C17.739,10.131 17.732,9.91 17.699,9.172 C17.611,7.289 16.726,6.389 14.829,6.302 Z M12,15.595 C10.015,15.595 8.405,13.986 8.405,12 C8.405,10.015 10.015,8.406 12,8.406 C13.985,8.406 15.595,10.015 15.595,12 C15.595,13.985 13.985,15.595 12,15.595 Z M15.737,9.104 C15.273,9.104 14.897,8.728 14.897,8.264 C14.897,7.8 15.273,7.424 15.737,7.424 C16.201,7.424 16.577,7.8 16.577,8.264 C16.577,8.727 16.201,9.104 15.737,9.104 L15.737,9.104 Z M14.333,12 C14.333,13.289 13.288,14.333 12,14.333 C10.712,14.333 9.667,13.289 9.667,12 C9.667,10.711 10.712,9.667 12,9.667 C13.288,9.667 14.333,10.711 14.333,12 Z M12,0 C5.373,0 0,5.373 0,12 C0,18.627 5.373,24 12,24 C18.627,24 24,18.627 24,12 C24,5.373 18.627,0 12,0 Z M18.958,14.886 C18.843,17.431 17.426,18.841 14.887,18.958 C14.14,18.992 13.901,19 12,19 C10.099,19 9.861,18.992 9.114,18.958 C6.57,18.841 5.159,17.429 5.042,14.886 C5.008,14.14 5,13.901 5,12 C5,10.099 5.008,9.861 5.042,9.114 C5.159,6.57 6.571,5.159 9.114,5.043 C9.861,5.008 10.099,5 12,5 C13.901,5 14.14,5.008 14.887,5.043 C17.432,5.16 18.844,6.575 18.958,9.114 C18.992,9.861 19,10.099 19,12 C19,13.901 18.992,14.14 18.958,14.886 Z"/>
</symbol><symbol id="linkedin" viewBox="0 0 24 24">
    <path d="M12,0 C5.373,0 0,5.373 0,12 C0,18.627 5.373,24 12,24 C18.627,24 24,18.627 24,12 C24,5.373 18.627,0 12,0 Z M10,16 L8,16 L8,10 L10,10 L10,16 Z M9,9.109 C8.393,9.109 7.9,8.613 7.9,8 C7.9,7.388 8.392,6.891 9,6.891 C9.608,6.891 10.1,7.388 10.1,8 C10.1,8.613 9.607,9.109 9,9.109 Z M17,16 L15.002,16 L15.002,13.139 C15.002,11.258 13,11.417 13,13.139 L13,16 L11,16 L11,10 L13,10 L13,11.093 C13.872,9.477 17,9.357 17,12.641 L17,16 Z"/>
</symbol><symbol id="logo" viewBox="0 0 550.7 225.3">
<g>
    <path d="M0,187.4h20.9v-38.9h23.6c26.1,0,47.5-14.2,47.5-41.4v-0.3c0-24.4-17.3-40.5-45.1-40.5H0V187.4L0,187.4z M20.9,129.2V85.6
        h24.3c15.6,0,25.6,7.4,25.6,21.6v0.3c0,12.6-9.8,21.6-25.6,21.6H20.9L20.9,129.2z M116,187.4h55c26.5,0,43.9-11.6,43.9-33.2v-0.3
        c0-16.4-9.7-24.6-23.6-29.4c8.8-4.7,17-12.5,17-27V97c0-8.1-2.7-14.7-8-20.1c-6.8-6.9-17.5-10.7-31-10.7H116V187.4L116,187.4z
         M187.4,100.8c0,11.1-9,16.4-22.4,16.4h-28.5V85.1h30c13.4,0,20.9,5.9,20.9,15.4V100.8L187.4,100.8z M194,151.6v0.3
        c0,10.9-8.7,16.6-22.9,16.6h-34.6v-33.2h33.1C186,135.3,194,141.3,194,151.6 M289.4,189.1c24.9,0,42.4-13.5,42.4-36.2v-0.3
        c0-20.1-12.9-29.3-38-35.5c-22.9-5.5-28.3-9.7-28.3-19v-0.3c0-8,7.1-14.4,19.3-14.4c10.9,0,21.5,4.3,32.2,12.5l11.2-16.1
        c-12-9.9-25.8-15.2-43.1-15.2c-23.6,0-40.5,14.4-40.5,35.1v0.3c0,22.3,14.3,29.9,39.5,36.2c22.1,5.2,26.8,9.9,26.8,18.5v0.3
        c0,9-8.1,15.2-21,15.2c-14.6,0-26.1-5.7-37.5-15.8l-12.6,15.2C254.1,182.7,271.2,189.1,289.4,189.1 M411.9,189.5
        c22.2,0,35.8-8.3,48.2-21.5l-13.4-13.8c-10.2,9.7-19.5,15.6-34.1,15.6c-22.7,0-39.2-19.2-39.2-42.9v-0.3
        c0-23.7,16.6-42.8,39.2-42.8c13.6,0,23.8,6.1,33.2,15.1L459.2,83c-11.4-11.1-24.6-18.9-46.5-18.9c-36,0-61.2,28.2-61.2,62.7v0.3
        C351.5,161.9,377.2,189.5,411.9,189.5"/>
    <g>
        <path d="M491.1,18.6l-24.7,19.6c31,20.1,51.3,54.5,52.6,92.7c1.5-5.5,2.6-11.3,3.2-17.1C526.5,77.6,514.1,43.3,491.1,18.6"/>
        <path d="M361.7,30.3c38.8-15.2,71.6-11.4,104.8,7.8c-3.9-4.2-8.2-8.1-12.8-11.8C425.5,3.8,394.3-4,361.5,1.9
            C361.2,2,361.7,30.3,361.7,30.3"/>
        <path d="M548.3,142.2L519,130.7c-1.7,36.9-21.2,71.8-53.6,92.1c5.5-1.5,11-3.5,16.4-5.8C515.2,202.4,538.5,174.5,548.3,142.2"/>
    </g>
</g>
</symbol><symbol id="medium" viewBox="0 0 24 24">
<g>
    <path d="M12,0C5.4,0,0,5.4,0,12s5.4,12,12,12s12-5.4,12-12S18.6,0,12,0z M17.9,7.9L17,8.7c-0.1,0.1-0.1,0.2-0.1,0.2v6.2
        c0,0.1,0,0.2,0.1,0.2l0.9,0.8v0.2h-4.3v-0.2l0.9-0.9c0.1-0.1,0.1-0.1,0.1-0.2v-5l-2.5,6.3h-0.3l-2.9-6.3v4.2c0,0.2,0,0.4,0.2,0.5
        l1.2,1.4v0.2H6.9v-0.2l1.2-1.4c0.1-0.1,0.2-0.3,0.1-0.5V9.4c0-0.1,0-0.3-0.1-0.4L7,7.9V7.7h3.2l2.5,5.4l2.2-5.4h3V7.9z"/>
</g>
</symbol><symbol id="twitter" viewBox="0 0 24 24">
<g>
    <path d="M12,0C5.4,0,0,5.4,0,12s5.4,12,12,12s12-5.4,12-12S18.6,0,12,0z M17.9,7.1c-0.2,0.6-0.6,1.1-1.1,1.4c0.5-0.1,1-0.2,1.5-0.4
        c-0.3,0.5-0.8,1-1.3,1.3l0,0.3c0,3.4-2.6,7.3-7.3,7.3c-1.5,0-2.8-0.4-3.9-1.2c0.2,0,0.4,0,0.6,0c1.2,0,2.3-0.4,3.2-1.1
        c-1.1,0-2.1-0.8-2.4-1.8c0.2,0,0.3,0,0.5,0c0.2,0,0.5,0,0.7-0.1c-1.2-0.2-2.1-1.3-2.1-2.5v0c0.3,0.2,0.7,0.3,1.2,0.3
        c-0.7-0.5-1.1-1.2-1.1-2.1c0-0.5,0.1-0.9,0.3-1.3c1.3,1.6,3.2,2.6,5.3,2.7c0-0.2-0.1-0.4-0.1-0.6c0-1.4,1.2-2.6,2.6-2.6
        c0.7,0,1.4,0.3,1.9,0.8"/>
</g>
</symbol><symbol id="youtube" viewBox="0 0 24 24">
    <!-- Generator: Sketch 64 (93537) - https://sketch.com -->
    <title>Icon/Social/YouTube</title>
    <desc>Created with Sketch.</desc>
    <g id="Icon/Social/YouTube" stroke="none" stroke-width="1" fill="none" fill-rule="evenodd">
        <g id="iconmonstr-youtube-6" transform="translate(0.000000, 3.000000)" fill="#000000" fill-rule="nonzero">
            <path d="M19.615,0.184 C16.011,-0.062 7.984,-0.061 4.385,0.184 C0.488,0.45 0.029,2.804 -1.77635684e-15,9 C0.029,15.185 0.484,17.549 4.385,17.816 C7.985,18.061 16.011,18.062 19.615,17.816 C23.512,17.55 23.971,15.196 24,9 C23.971,2.815 23.516,0.451 19.615,0.184 Z M9,13 L9,5 L17,8.993 L9,13 L9,13 Z" id="Shape"/>
        </g>
    </g>
</symbol></svg>